<svg xmlns="http://www.w3.org/2000/svg" width="24" height="22" style=""><rect id="backgroundrect" width="100%" height="100%" x="0" y="0" fill="none" stroke="none"/><g class="currentLayer" style=""><title>Layer 1</title><path fill-rule="evenodd" clip-rule="evenodd" d="M1.75,0 C0.7835010290145874,0 0,0.7834999561309814 0,1.75 V11.25 C0,12.216500282287598 0.7835019826889038,13 1.75,13 H3 V14.542900085449219 C3,15.347600936889648 3.652369976043701,16 4.4571099281311035,16 C4.843550205230713,16 5.214179992675781,15.846500396728516 5.48744010925293,15.573200225830078 L8.060660362243652,13 H14.25 C15.216500282287598,13 16,12.216500282287598 16,11.25 V1.75 C16,0.7834999561309814 15.216500282287598,0 14.25,0 H1.75 zM1.5,1.75 C1.5,1.6119298934936523 1.611930012702942,1.5 1.75,1.5 H14.25 C14.388099670410156,1.5 14.5,1.6119298934936523 14.5,1.75 V11.25 C14.5,11.388099670410156 14.388099670410156,11.5 14.25,11.5 H7.75 C7.551089763641357,11.5 7.360320091247559,11.579000473022461 7.219669818878174,11.71969985961914 L4.5,14.439299583435059 V12.25 C4.5,11.835800170898438 4.164209842681885,11.5 3.75,11.5 H1.75 C1.611930012702942,11.5 1.5,11.388099670410156 1.5,11.25 V1.75 z" id="svg_1" class="" stroke="#ffffff" stroke-opacity="1" fill="#ffffff" fill-opacity="1"/><path d="M22.5,7.75 C22.5,7.611929893493652 22.388099670410156,7.5 22.25,7.5 H18.75 C18.335800170898438,7.5 18,7.164210319519043 18,6.75 C18,6.335790157318115 18.335800170898438,6 18.75,6 H22.25 C23.21649932861328,6 24,6.7835001945495605 24,7.75 V17.25 C24,18.21649932861328 23.21649932861328,19 22.25,19 H21 V20.54290008544922 C21,21.34760093688965 20.34760093688965,22 19.54290008544922,22 C19.156400680541992,22 18.78580093383789,21.846500396728516 18.51259994506836,21.573200225830078 L15.939299583435059,19 H10.75 C9.783499717712402,19 9,18.21649932861328 9,17.25 V15.785499572753906 C9,15.371299743652344 9.335789680480957,15.035499572753906 9.75,15.035499572753906 C10.164199829101562,15.035499572753906 10.5,15.371299743652344 10.5,15.785499572753906 V17.25 C10.5,17.388099670410156 10.611900329589844,17.5 10.75,17.5 H16.25 C16.44890022277832,17.5 16.639699935913086,17.57900047302246 16.78030014038086,17.71969985961914 L19.5,20.439300537109375 V18.25 C19.5,17.835800170898438 19.835800170898438,17.5 20.25,17.5 H22.25 C22.388099670410156,17.5 22.5,17.388099670410156 22.5,17.25 V7.75 z" id="svg_2" class="" fill="#ffffff" fill-opacity="1"/></g></svg>