<svg height="512pt" viewBox="0 0 512 512" width="512pt" xmlns="http://www.w3.org/2000/svg"><path d="m373.332031 0c-76.457031 0-138.664062 62.207031-138.664062 138.667969 0 76.457031 62.207031 138.664062 138.664062 138.664062 76.460938 0 138.667969-62.207031 138.667969-138.664062 0-76.460938-62.207031-138.667969-138.667969-138.667969zm21.335938 186.667969c0 8.832031-7.167969 16-16 16s-16-7.167969-16-16v-69.335938h-10.667969c-8.832031 0-16-7.167969-16-16s7.167969-16 16-16h26.667969c8.832031 0 16 7.167969 16 16zm0 0" fill="#f44336"/><path d="m298.667969 426.667969c0 47.128906-38.207031 85.332031-85.335938 85.332031-47.128906 0-85.332031-38.203125-85.332031-85.332031 0-47.128907 38.203125-85.335938 85.332031-85.335938 47.128907 0 85.335938 38.207031 85.335938 85.335938zm0 0" fill="#ffa000"/><path d="m380.160156 319.660156c-2.28125.082032-4.523437.339844-6.828125.339844-99.988281 0-181.332031-81.34375-181.332031-181.332031 0-35.136719 10.21875-67.863281 27.585938-95.679688-2.09375-.085937-4.140626-.320312-6.253907-.320312-82.34375 0-149.332031 66.984375-149.332031 149.332031v59.476562c0 42.21875-18.496094 82.070313-50.945312 109.503907-8.296876 7.082031-13.054688 17.429687-13.054688 28.351562 0 20.589844 16.746094 37.335938 37.332031 37.335938h352c20.589844 0 37.335938-16.746094 37.335938-37.335938 0-10.921875-4.757813-21.269531-13.269531-28.542969-13.761719-11.648437-24.855469-25.683593-33.238282-41.128906zm0 0" fill="#ffc107"/></svg>